<?xml version="1.0" standalone="no"?><!DOCTYPE svg PUBLIC "-//W3C//DTD SVG 1.1//EN" "http://www.w3.org/Graphics/SVG/1.1/DTD/svg11.dtd"><svg class="icon" width="200px" height="200.00px" viewBox="0 0 1024 1024" version="1.1" xmlns="http://www.w3.org/2000/svg"><path fill="#8a8a8a" d="M798.3 412.6H751c0.4-5.3 0.6-10.7 0.6-16.2 0-132.4-107.7-240.2-240.2-240.2S271.2 264 271.2 396.4c0 5.4 0.2 10.8 0.6 16.2h-47.3c-21.7 0-39.3 17.6-39.3 39.3v376.2c0 21.7 17.6 39.3 39.3 39.3h573.9c21.7 0 39.3-17.6 39.3-39.3V451.8c-0.1-21.7-17.7-39.2-39.4-39.2z m-254.8 306c0 17.7-14.4 32.1-32.1 32.1-17.7 0-32.1-14.4-32.1-32.1v-137c0-17.7 14.4-32.1 32.1-32.1 17.7 0 32.1 14.4 32.1 32.1v137z m149.4-306H329.7c-0.5-5.3-0.7-10.7-0.7-16.2 0-100.5 81.8-182.3 182.3-182.3s182.3 81.8 182.3 182.3c0.1 5.4-0.2 10.8-0.7 16.2z"  /></svg>